<svg xmlns="http://www.w3.org/2000/svg" xmlns:xlink="http://www.w3.org/1999/xlink" width="2000" zoomAndPan="magnify" viewBox="0 0 1500 1499.999933" height="2000" preserveAspectRatio="xMidYMid meet" version="1.0"><defs><g/><clipPath id="c19ddc1105"><rect x="0" width="832" y="0" height="1122"/></clipPath><clipPath id="79b8b82932"><path d="M 169 218 L 1498 218 L 1498 1458 L 169 1458 Z M 169 218 " clip-rule="nonzero"/></clipPath><clipPath id="ae12a185bf"><path d="M 1086.074219 1458.988281 L 169.871094 769.351562 L 585.730469 216.871094 L 1501.933594 906.511719 Z M 1086.074219 1458.988281 " clip-rule="nonzero"/></clipPath><clipPath id="93474ad2e2"><path d="M 410 7 L 1326 7 L 1326 699 L 410 699 Z M 410 7 " clip-rule="nonzero"/></clipPath><clipPath id="d8cde93cf7"><path d="M 917.074219 1240.988281 L 0.871094 551.351562 L 416.730469 -1.128906 L 1332.933594 688.511719 Z M 917.074219 1240.988281 " clip-rule="nonzero"/></clipPath><clipPath id="ccb7dbecb8"><path d="M 1332.710938 688.808594 L 416.503906 -0.828125 L 0.644531 551.648438 L 916.851562 1241.289062 Z M 1332.710938 688.808594 " clip-rule="nonzero"/></clipPath><clipPath id="203b0120d5"><path d="M 1332.710938 688.808594 L 416.503906 -0.828125 L 0.644531 551.648438 L 916.851562 1241.289062 Z M 1332.710938 688.808594 " clip-rule="nonzero"/></clipPath><clipPath id="f6941fdc9e"><path d="M 908 682 L 1326 682 L 1326 1235 L 908 1235 Z M 908 682 " clip-rule="nonzero"/></clipPath><clipPath id="807a45fe62"><path d="M 917.074219 1240.988281 L 0.871094 551.351562 L 416.730469 -1.128906 L 1332.933594 688.511719 Z M 917.074219 1240.988281 " clip-rule="nonzero"/></clipPath><clipPath id="3e11806450"><path d="M 1332.710938 688.808594 L 416.503906 -0.828125 L 0.644531 551.648438 L 916.851562 1241.289062 Z M 1332.710938 688.808594 " clip-rule="nonzero"/></clipPath><clipPath id="58c94e2962"><path d="M 1332.710938 688.808594 L 416.503906 -0.828125 L 0.644531 551.648438 L 916.851562 1241.289062 Z M 1332.710938 688.808594 " clip-rule="nonzero"/></clipPath><clipPath id="33ff277e34"><rect x="0" width="1329" y="0" height="1240"/></clipPath><clipPath id="16929b1229"><path d="M 82 234 L 1410 234 L 1410 1474 L 82 1474 Z M 82 234 " clip-rule="nonzero"/></clipPath><clipPath id="b1c76088ee"><path d="M 998.425781 1475.304688 L 82.21875 785.664062 L 498.078125 233.183594 L 1414.285156 922.824219 Z M 998.425781 1475.304688 " clip-rule="nonzero"/></clipPath><clipPath id="06f0562aae"><path d="M 409 8 L 1325 8 L 1325 699 L 409 699 Z M 409 8 " clip-rule="nonzero"/></clipPath><clipPath id="d17b7c9455"><path d="M 916.425781 1241.304688 L 0.21875 551.664062 L 416.078125 -0.816406 L 1332.285156 688.824219 Z M 916.425781 1241.304688 " clip-rule="nonzero"/></clipPath><clipPath id="b165430139"><path d="M 1332.058594 689.125 L 415.851562 -0.515625 L -0.00390625 551.960938 L 916.199219 1241.601562 Z M 1332.058594 689.125 " clip-rule="nonzero"/></clipPath><clipPath id="8ab6467f24"><path d="M 1332.058594 689.125 L 415.851562 -0.515625 L -0.00390625 551.960938 L 916.199219 1241.601562 Z M 1332.058594 689.125 " clip-rule="nonzero"/></clipPath><clipPath id="ce54c3af66"><path d="M 907 682 L 1325 682 L 1325 1235 L 907 1235 Z M 907 682 " clip-rule="nonzero"/></clipPath><clipPath id="1af4dcf9f0"><path d="M 916.425781 1241.304688 L 0.21875 551.664062 L 416.078125 -0.816406 L 1332.285156 688.824219 Z M 916.425781 1241.304688 " clip-rule="nonzero"/></clipPath><clipPath id="d7b0670a72"><path d="M 1332.058594 689.125 L 415.851562 -0.515625 L -0.00390625 551.960938 L 916.199219 1241.601562 Z M 1332.058594 689.125 " clip-rule="nonzero"/></clipPath><clipPath id="6caa700c3f"><path d="M 1332.058594 689.125 L 415.851562 -0.515625 L -0.00390625 551.960938 L 916.199219 1241.601562 Z M 1332.058594 689.125 " clip-rule="nonzero"/></clipPath><clipPath id="2b0a9f0201"><rect x="0" width="1328" y="0" height="1240"/></clipPath><clipPath id="17277c3d14"><path d="M 0 259 L 1328 259 L 1328 1499 L 0 1499 Z M 0 259 " clip-rule="nonzero"/></clipPath><clipPath id="bfbfe37511"><path d="M 916.476562 1499.996094 L 0.269531 810.355469 L 416.128906 257.878906 L 1332.335938 947.519531 Z M 916.476562 1499.996094 " clip-rule="nonzero"/></clipPath><clipPath id="2158b8ffd0"><path d="M 409 7 L 1325 7 L 1325 699 L 409 699 Z M 409 7 " clip-rule="nonzero"/></clipPath><clipPath id="a68043b800"><path d="M 916.476562 1240.996094 L 0.269531 551.355469 L 416.128906 -1.121094 L 1332.335938 688.519531 Z M 916.476562 1240.996094 " clip-rule="nonzero"/></clipPath><clipPath id="ab6fb961c4"><path d="M 1332.109375 688.816406 L 415.90625 -0.824219 L 0.046875 551.65625 L 916.25 1241.296875 Z M 1332.109375 688.816406 " clip-rule="nonzero"/></clipPath><clipPath id="81e926a694"><path d="M 1332.109375 688.816406 L 415.90625 -0.824219 L 0.046875 551.65625 L 916.25 1241.296875 Z M 1332.109375 688.816406 " clip-rule="nonzero"/></clipPath><clipPath id="f0f74d9642"><path d="M 907 682 L 1325 682 L 1325 1235 L 907 1235 Z M 907 682 " clip-rule="nonzero"/></clipPath><clipPath id="71871d1070"><path d="M 916.476562 1240.996094 L 0.269531 551.355469 L 416.128906 -1.121094 L 1332.335938 688.519531 Z M 916.476562 1240.996094 " clip-rule="nonzero"/></clipPath><clipPath id="7a6e5e1df8"><path d="M 1332.109375 688.816406 L 415.90625 -0.824219 L 0.046875 551.65625 L 916.25 1241.296875 Z M 1332.109375 688.816406 " clip-rule="nonzero"/></clipPath><clipPath id="20edad4108"><path d="M 1332.109375 688.816406 L 415.90625 -0.824219 L 0.046875 551.65625 L 916.25 1241.296875 Z M 1332.109375 688.816406 " clip-rule="nonzero"/></clipPath><clipPath id="ce10bcb534"><rect x="0" width="1328" y="0" height="1240"/></clipPath><clipPath id="f2f43b13af"><rect x="0" width="507" y="0" height="152"/></clipPath><clipPath id="e8e561c840"><path d="M 794 761 L 1025 761 L 1025 987 L 794 987 Z M 794 761 " clip-rule="nonzero"/></clipPath><clipPath id="94c8f216b7"><path d="M 790.300781 764.359375 L 1019.75 759.542969 L 1024.40625 981.496094 L 794.957031 986.308594 Z M 790.300781 764.359375 " clip-rule="nonzero"/></clipPath><clipPath id="8be582f3c2"><path d="M 790.300781 764.359375 L 1019.75 759.542969 L 1024.40625 981.496094 L 794.957031 986.308594 Z M 790.300781 764.359375 " clip-rule="nonzero"/></clipPath></defs><g transform="matrix(1, 0, 0, 1, 50, 110)"><g clip-path="url(#c19ddc1105)"><g fill="#ffffff" fill-opacity="1"><g transform="translate(2.22862, 897.262915)"><g><path d="M 450.15625 11.203125 C 362.0625 11.203125 288.710938 -5.59375 230.109375 -39.1875 C 171.515625 -72.78125 127.472656 -119.8125 97.984375 -180.28125 C 68.492188 -240.75 53.75 -311.296875 53.75 -391.921875 C 53.75 -474.035156 68.492188 -545.140625 97.984375 -605.234375 C 127.472656 -665.335938 171.144531 -712 229 -745.21875 C 286.851562 -778.4375 358.703125 -795.046875 444.546875 -795.046875 C 502.773438 -795.046875 554.84375 -788.140625 600.75 -774.328125 C 646.664062 -760.515625 683.8125 -740.921875 712.1875 -715.546875 L 755.859375 -526.296875 L 754.734375 -526.296875 C 735.328125 -572.578125 711.25 -608.222656 682.5 -633.234375 C 653.757812 -658.242188 621.097656 -675.785156 584.515625 -685.859375 C 547.941406 -695.941406 507.257812 -700.984375 462.46875 -700.984375 C 394.53125 -700.984375 338.164062 -687.734375 293.375 -661.234375 C 248.59375 -634.734375 215.1875 -598.335938 193.15625 -552.046875 C 171.132812 -505.765625 160.125 -452.390625 160.125 -391.921875 C 160.125 -331.453125 171.132812 -278.078125 193.15625 -231.796875 C 215.1875 -185.515625 248.410156 -149.304688 292.828125 -123.171875 C 337.242188 -97.046875 393.414062 -83.609375 461.34375 -82.859375 C 494.195312 -82.859375 525.363281 -85.84375 554.84375 -91.8125 C 584.332031 -97.789062 611.394531 -106.753906 636.03125 -118.703125 L 636.03125 -231.796875 C 636.03125 -265.390625 634.910156 -291.890625 632.671875 -311.296875 C 630.429688 -330.703125 623.523438 -345.628906 611.953125 -356.078125 C 600.390625 -366.535156 581.539062 -375.679688 555.40625 -383.515625 C 529.28125 -391.359375 492.328125 -400.878906 444.546875 -412.078125 L 444.546875 -413.203125 L 742.421875 -413.203125 L 742.421875 -76.140625 C 702.109375 -45.535156 658.804688 -23.515625 612.515625 -10.078125 C 566.234375 3.355469 512.113281 10.453125 450.15625 11.203125 Z M 450.15625 11.203125 "/></g></g></g></g></g><g clip-path="url(#79b8b82932)"><g clip-path="url(#ae12a185bf)"><g transform="matrix(1, 0, 0, 1, 169, 218)"><g clip-path="url(#33ff277e34)"><g clip-path="url(#93474ad2e2)"><g clip-path="url(#d8cde93cf7)"><g clip-path="url(#ccb7dbecb8)"><g clip-path="url(#203b0120d5)"><path fill="#ffffff" d="M 1322.164062 684.320312 L 410.574219 7.730469 L 1312.960938 696.546875 C 1321.003906 702.449219 1330.277344 690.695312 1322.164062 684.320312 Z M 1322.164062 684.320312 " fill-opacity="1" fill-rule="nonzero"/></g></g></g></g><g clip-path="url(#f6941fdc9e)"><g clip-path="url(#807a45fe62)"><g clip-path="url(#3e11806450)"><g clip-path="url(#58c94e2962)"><path fill="#ffffff" d="M 1311.449219 685.832031 C 1311.449219 685.832031 908.167969 1234.324219 908.167969 1234.324219 L 1323.675781 695.035156 C 1329.652344 686.890625 1317.78125 677.726562 1311.449219 685.832031 Z M 1311.449219 685.832031 " fill-opacity="1" fill-rule="nonzero"/></g></g></g></g></g></g></g></g><g clip-path="url(#16929b1229)"><g clip-path="url(#b1c76088ee)"><g transform="matrix(1, 0, 0, 1, 82, 234)"><g clip-path="url(#2b0a9f0201)"><g clip-path="url(#06f0562aae)"><g clip-path="url(#d17b7c9455)"><g clip-path="url(#b165430139)"><g clip-path="url(#8ab6467f24)"><path fill="#ffffff" d="M 1321.511719 684.632812 L 409.921875 8.042969 L 1312.308594 696.859375 C 1320.355469 702.761719 1329.625 691.007812 1321.511719 684.632812 Z M 1321.511719 684.632812 " fill-opacity="1" fill-rule="nonzero"/></g></g></g></g><g clip-path="url(#ce54c3af66)"><g clip-path="url(#1af4dcf9f0)"><g clip-path="url(#d7b0670a72)"><g clip-path="url(#6caa700c3f)"><path fill="#ffffff" d="M 1310.796875 686.144531 C 1310.796875 686.144531 907.515625 1234.636719 907.515625 1234.636719 L 1323.023438 695.347656 C 1329 687.203125 1317.128906 678.039062 1310.796875 686.144531 Z M 1310.796875 686.144531 " fill-opacity="1" fill-rule="nonzero"/></g></g></g></g></g></g></g></g><g clip-path="url(#17277c3d14)"><g clip-path="url(#bfbfe37511)"><g transform="matrix(1, 0, 0, 1, -0.000000000000000028, 259)"><g clip-path="url(#ce10bcb534)"><g clip-path="url(#2158b8ffd0)"><g clip-path="url(#a68043b800)"><g clip-path="url(#ab6fb961c4)"><g clip-path="url(#81e926a694)"><path fill="#ffffff" d="M 1321.5625 684.328125 L 409.972656 7.738281 L 1312.359375 696.554688 C 1320.40625 702.457031 1329.675781 690.703125 1321.5625 684.328125 Z M 1321.5625 684.328125 " fill-opacity="1" fill-rule="nonzero"/></g></g></g></g><g clip-path="url(#f0f74d9642)"><g clip-path="url(#71871d1070)"><g clip-path="url(#7a6e5e1df8)"><g clip-path="url(#20edad4108)"><path fill="#ffffff" d="M 1310.847656 685.839844 C 1310.847656 685.839844 907.570312 1234.332031 907.570312 1234.332031 L 1323.074219 695.042969 C 1329.050781 686.898438 1317.179688 677.734375 1310.847656 685.839844 Z M 1310.847656 685.839844 " fill-opacity="1" fill-rule="nonzero"/></g></g></g></g></g></g></g></g><g transform="matrix(1, 0, 0, 1, 654, 1008)"><g clip-path="url(#f2f43b13af)"><g fill="#ffffff" fill-opacity="1"><g transform="translate(1.024062, 93.114115)"><g><path d="M 4.78125 19.6875 L 4.78125 -47.40625 L 12.90625 -47.890625 L 13.578125 -44.15625 C 15.804688 -45.175781 18.578125 -46.210938 21.890625 -47.265625 C 25.203125 -48.316406 28.515625 -48.84375 31.828125 -48.84375 C 37.304688 -48.84375 42.019531 -47.804688 45.96875 -45.734375 C 49.925781 -43.660156 52.972656 -40.789062 55.109375 -37.125 C 57.242188 -33.46875 58.3125 -29.1875 58.3125 -24.28125 C 58.3125 -19.375 57.226562 -15.070312 55.0625 -11.375 C 52.894531 -7.675781 49.816406 -4.789062 45.828125 -2.71875 C 41.847656 -0.65625 37.117188 0.375 31.640625 0.375 C 28.515625 0.375 25.4375 -0.0195312 22.40625 -0.8125 C 19.382812 -1.601562 16.726562 -2.539062 14.4375 -3.625 L 14.4375 19.6875 Z M 30.78125 -8.703125 C 35.75 -8.703125 39.503906 -9.445312 42.046875 -10.9375 C 44.597656 -12.4375 46.335938 -14.378906 47.265625 -16.765625 C 48.191406 -19.160156 48.65625 -21.664062 48.65625 -24.28125 C 48.65625 -26.957031 48.191406 -29.472656 47.265625 -31.828125 C 46.335938 -34.191406 44.597656 -36.101562 42.046875 -37.5625 C 39.503906 -39.03125 35.75 -39.765625 30.78125 -39.765625 C 28.488281 -39.765625 25.796875 -39.394531 22.703125 -38.65625 C 19.609375 -37.925781 16.851562 -36.988281 14.4375 -35.84375 L 14.4375 -12.328125 C 16.28125 -11.628906 18.695312 -10.847656 21.6875 -9.984375 C 24.6875 -9.128906 27.71875 -8.703125 30.78125 -8.703125 Z M 30.78125 -8.703125 "/></g></g></g><g fill="#ffffff" fill-opacity="1"><g transform="translate(61.720432, 93.114115)"><g><path d="M 32.125 -48.84375 C 35.5625 -48.84375 38.140625 -48.648438 39.859375 -48.265625 C 41.578125 -47.890625 42.4375 -47.703125 42.4375 -47.703125 L 40.34375 -38.71875 C 40.34375 -38.71875 39.476562 -38.890625 37.75 -39.234375 C 36.03125 -39.585938 33.769531 -39.765625 30.96875 -39.765625 C 29.4375 -39.765625 27.648438 -39.585938 25.609375 -39.234375 C 23.578125 -38.890625 21.570312 -38.410156 19.59375 -37.796875 C 17.613281 -37.191406 15.894531 -36.476562 14.4375 -35.65625 L 14.4375 0 L 4.875 0 L 4.875 -47.40625 L 12.90625 -48.078125 L 13.578125 -44.15625 C 15.804688 -45.175781 18.625 -46.210938 22.03125 -47.265625 C 25.4375 -48.316406 28.800781 -48.84375 32.125 -48.84375 Z M 32.125 -48.84375 "/></g></g></g><g fill="#ffffff" fill-opacity="1"><g transform="translate(102.53472, 93.114115)"><g><path d="M 28.875 -48.84375 C 32.1875 -48.84375 35.515625 -48.316406 38.859375 -47.265625 C 42.203125 -46.210938 44.957031 -45.175781 47.125 -44.15625 L 47.890625 -47.890625 L 56.015625 -47.40625 L 56.015625 0 L 47.890625 0 L 47.21875 -4.109375 C 44.863281 -2.898438 42.109375 -1.847656 38.953125 -0.953125 C 35.796875 -0.0664062 32.53125 0.375 29.15625 0.375 C 23.675781 0.375 18.925781 -0.65625 14.90625 -2.71875 C 10.894531 -4.789062 7.804688 -7.675781 5.640625 -11.375 C 3.472656 -15.070312 2.390625 -19.375 2.390625 -24.28125 C 2.390625 -29.1875 3.457031 -33.46875 5.59375 -37.125 C 7.726562 -40.789062 10.785156 -43.660156 14.765625 -45.734375 C 18.753906 -47.804688 23.457031 -48.84375 28.875 -48.84375 Z M 30.015625 -8.703125 C 33.003906 -8.703125 36.015625 -9.128906 39.046875 -9.984375 C 42.078125 -10.847656 44.515625 -11.628906 46.359375 -12.328125 L 46.359375 -35.84375 C 43.941406 -36.988281 41.1875 -37.925781 38.09375 -38.65625 C 35 -39.394531 32.304688 -39.765625 30.015625 -39.765625 C 25.046875 -39.765625 21.269531 -39.03125 18.6875 -37.5625 C 16.101562 -36.101562 14.347656 -34.191406 13.421875 -31.828125 C 12.503906 -29.472656 12.046875 -26.957031 12.046875 -24.28125 C 12.046875 -21.664062 12.503906 -19.160156 13.421875 -16.765625 C 14.347656 -14.378906 16.101562 -12.4375 18.6875 -10.9375 C 21.269531 -9.445312 25.046875 -8.703125 30.015625 -8.703125 Z M 30.015625 -8.703125 "/></g></g></g><g fill="#ffffff" fill-opacity="1"><g transform="translate(164.664971, 93.114115)"><g><path d="M 80.671875 0 L 80.578125 -26.859375 C 80.578125 -29.597656 80.226562 -31.921875 79.53125 -33.828125 C 78.832031 -35.742188 77.539062 -37.210938 75.65625 -38.234375 C 73.78125 -39.253906 70.992188 -39.765625 67.296875 -39.765625 C 65.316406 -39.765625 62.910156 -39.476562 60.078125 -38.90625 C 57.242188 -38.332031 54.613281 -37.597656 52.1875 -36.703125 C 53.332031 -33.960938 53.90625 -30.679688 53.90625 -26.859375 L 53.90625 0 L 44.25 0 L 44.25 -26.859375 C 44.25 -29.597656 43.898438 -31.921875 43.203125 -33.828125 C 42.503906 -35.742188 41.210938 -37.210938 39.328125 -38.234375 C 37.453125 -39.253906 34.664062 -39.765625 30.96875 -39.765625 C 28.738281 -39.765625 26.046875 -39.394531 22.890625 -38.65625 C 19.734375 -37.925781 16.914062 -37.019531 14.4375 -35.9375 L 14.4375 0 L 4.78125 0 L 4.78125 -47.40625 L 12.90625 -48.078125 L 13.578125 -44.15625 C 15.804688 -45.175781 18.609375 -46.210938 21.984375 -47.265625 C 25.359375 -48.316406 28.703125 -48.84375 32.015625 -48.84375 C 38.515625 -48.84375 43.742188 -47.023438 47.703125 -43.390625 C 49.097656 -44.097656 50.941406 -44.878906 53.234375 -45.734375 C 55.535156 -46.597656 58.023438 -47.332031 60.703125 -47.9375 C 63.378906 -48.539062 65.957031 -48.84375 68.4375 -48.84375 C 75.195312 -48.84375 80.519531 -46.929688 84.40625 -43.109375 C 88.289062 -39.285156 90.234375 -33.867188 90.234375 -26.859375 L 90.234375 0 Z M 80.671875 0 "/></g></g></g><g fill="#ffffff" fill-opacity="1"><g transform="translate(259.676254, 93.114115)"><g><path d="M 14.4375 -48.46875 L 14.4375 -21.609375 C 14.4375 -18.867188 14.816406 -16.539062 15.578125 -14.625 C 16.347656 -12.707031 17.863281 -11.238281 20.125 -10.21875 C 22.382812 -9.207031 25.804688 -8.703125 30.390625 -8.703125 C 31.921875 -8.703125 33.707031 -8.859375 35.75 -9.171875 C 37.789062 -9.492188 39.878906 -9.941406 42.015625 -10.515625 C 44.148438 -11.085938 46.046875 -11.753906 47.703125 -12.515625 L 47.703125 -48.46875 L 57.25 -48.46875 L 57.25 0 L 49.234375 0 L 48.46875 -4.203125 C 46.9375 -3.566406 45.101562 -2.878906 42.96875 -2.140625 C 40.832031 -1.410156 38.582031 -0.804688 36.21875 -0.328125 C 33.863281 0.136719 31.570312 0.375 29.34375 0.375 C 21.695312 0.375 15.691406 -1.535156 11.328125 -5.359375 C 6.960938 -9.179688 4.78125 -14.597656 4.78125 -21.609375 L 4.78125 -48.46875 Z M 14.4375 -48.46875 "/></g></g></g><g fill="#ffffff" fill-opacity="1"><g transform="translate(321.710786, 93.114115)"><g><path d="M 55.921875 -65.765625 L 55.921875 0 L 47.890625 0 L 47.21875 -4.109375 C 44.863281 -2.898438 42.09375 -1.847656 38.90625 -0.953125 C 35.71875 -0.0664062 32.4375 0.375 29.0625 0.375 C 23.644531 0.375 18.925781 -0.65625 14.90625 -2.71875 C 10.894531 -4.789062 7.804688 -7.675781 5.640625 -11.375 C 3.472656 -15.070312 2.390625 -19.375 2.390625 -24.28125 C 2.390625 -29.1875 3.457031 -33.46875 5.59375 -37.125 C 7.726562 -40.789062 10.769531 -43.660156 14.71875 -45.734375 C 18.664062 -47.804688 23.382812 -48.84375 28.875 -48.84375 C 31.988281 -48.84375 35.125 -48.363281 38.28125 -47.40625 C 41.4375 -46.457031 44.128906 -45.503906 46.359375 -44.546875 L 46.359375 -66.34375 Z M 30.015625 -8.703125 C 33.003906 -8.703125 36.03125 -9.128906 39.09375 -9.984375 C 42.15625 -10.847656 44.578125 -11.628906 46.359375 -12.328125 L 46.359375 -35.84375 C 43.941406 -36.988281 41.1875 -37.925781 38.09375 -38.65625 C 35 -39.394531 32.304688 -39.765625 30.015625 -39.765625 C 25.046875 -39.765625 21.269531 -39.03125 18.6875 -37.5625 C 16.101562 -36.101562 14.347656 -34.191406 13.421875 -31.828125 C 12.503906 -29.472656 12.046875 -26.957031 12.046875 -24.28125 C 12.046875 -21.664062 12.503906 -19.160156 13.421875 -16.765625 C 14.347656 -14.378906 16.101562 -12.4375 18.6875 -10.9375 C 21.269531 -9.445312 25.046875 -8.703125 30.015625 -8.703125 Z M 30.015625 -8.703125 "/></g></g></g><g fill="#ffffff" fill-opacity="1"><g transform="translate(382.502714, 93.114115)"><g><path d="M 15.578125 -61.46875 C 15.578125 -59.875 14.988281 -58.46875 13.8125 -57.25 C 12.632812 -56.039062 11.21875 -55.4375 9.5625 -55.4375 C 7.96875 -55.4375 6.578125 -56.039062 5.390625 -57.25 C 4.210938 -58.46875 3.625 -59.875 3.625 -61.46875 C 3.625 -63.125 4.210938 -64.539062 5.390625 -65.71875 C 6.578125 -66.894531 7.96875 -67.484375 9.5625 -67.484375 C 11.21875 -67.484375 12.632812 -66.894531 13.8125 -65.71875 C 14.988281 -64.539062 15.578125 -63.125 15.578125 -61.46875 Z M 4.78125 0 L 4.78125 -47.40625 L 14.4375 -47.984375 L 14.4375 0 Z M 4.78125 0 "/></g></g></g><g fill="#ffffff" fill-opacity="1"><g transform="translate(401.715253, 93.114115)"><g><path d="M 19.5 -59.359375 L 19.5 -48.078125 L 40.8125 -48.078125 L 39.953125 -39.1875 L 19.5 -39.1875 L 19.5 -17.109375 C 19.5 -13.609375 20.453125 -11.332031 22.359375 -10.28125 C 24.273438 -9.226562 27.273438 -8.703125 31.359375 -8.703125 C 34.160156 -8.703125 36.515625 -8.828125 38.421875 -9.078125 C 40.335938 -9.335938 41.296875 -9.46875 41.296875 -9.46875 L 42.25 -0.578125 C 42.25 -0.578125 41.132812 -0.414062 38.90625 -0.09375 C 36.675781 0.214844 33.96875 0.375 30.78125 0.375 C 28.226562 0.375 25.722656 0.152344 23.265625 -0.28125 C 20.816406 -0.726562 18.585938 -1.570312 16.578125 -2.8125 C 14.578125 -4.0625 12.96875 -5.832031 11.75 -8.125 C 10.539062 -10.414062 9.9375 -13.410156 9.9375 -17.109375 L 9.9375 -39.1875 L 2.390625 -39.1875 L 3.15625 -48.078125 L 10.421875 -48.078125 L 13.578125 -58.6875 Z M 19.5 -59.359375 "/></g></g></g><g fill="#ffffff" fill-opacity="1"><g transform="translate(443.67671, 93.114115)"><g><path d="M 30.78125 0.375 C 25.101562 0.375 20.128906 -0.65625 15.859375 -2.71875 C 11.597656 -4.789062 8.285156 -7.675781 5.921875 -11.375 C 3.566406 -15.070312 2.390625 -19.375 2.390625 -24.28125 C 2.390625 -29.1875 3.566406 -33.46875 5.921875 -37.125 C 8.285156 -40.789062 11.597656 -43.660156 15.859375 -45.734375 C 20.128906 -47.804688 25.101562 -48.84375 30.78125 -48.84375 C 36.445312 -48.84375 41.414062 -47.804688 45.6875 -45.734375 C 49.957031 -43.660156 53.285156 -40.789062 55.671875 -37.125 C 58.066406 -33.46875 59.265625 -29.1875 59.265625 -24.28125 C 59.265625 -19.375 58.066406 -15.070312 55.671875 -11.375 C 53.285156 -7.675781 49.957031 -4.789062 45.6875 -2.71875 C 41.414062 -0.65625 36.445312 0.375 30.78125 0.375 Z M 30.78125 -39.671875 C 26.570312 -39.671875 23.222656 -39.097656 20.734375 -37.953125 C 18.253906 -36.804688 16.390625 -35.367188 15.140625 -33.640625 C 13.898438 -31.921875 13.085938 -30.203125 12.703125 -28.484375 C 12.328125 -26.765625 12.140625 -25.363281 12.140625 -24.28125 C 12.140625 -23.195312 12.328125 -21.796875 12.703125 -20.078125 C 13.085938 -18.359375 13.898438 -16.632812 15.140625 -14.90625 C 16.390625 -13.1875 18.253906 -11.738281 20.734375 -10.5625 C 23.222656 -9.382812 26.570312 -8.796875 30.78125 -8.796875 C 34.988281 -8.796875 38.332031 -9.382812 40.8125 -10.5625 C 43.300781 -11.738281 45.164062 -13.1875 46.40625 -14.90625 C 47.644531 -16.632812 48.457031 -18.359375 48.84375 -20.078125 C 49.226562 -21.796875 49.421875 -23.195312 49.421875 -24.28125 C 49.421875 -25.363281 49.226562 -26.765625 48.84375 -28.484375 C 48.457031 -30.203125 47.644531 -31.921875 46.40625 -33.640625 C 45.164062 -35.367188 43.300781 -36.804688 40.8125 -37.953125 C 38.332031 -39.097656 34.988281 -39.671875 30.78125 -39.671875 Z M 30.78125 -39.671875 "/></g></g></g></g></g><g clip-path="url(#e8e561c840)"><g clip-path="url(#94c8f216b7)"><g clip-path="url(#8be582f3c2)"><path fill="#ffffff" d="M 869.597656 896.941406 L 905.097656 808.238281 L 954.382812 917.835938 C 939.921875 912.441406 924.226562 909.632812 907.859375 909.976562 C 856.992188 911.042969 813.808594 942.207031 794.953125 986.105469 L 834.613281 985.273438 C 850.566406 961.28125 877.609375 945.230469 908.585938 944.578125 C 938.253906 943.957031 964.898438 957.601562 981.988281 979.210938 L 983.308594 982.152344 L 984.203125 982.132812 L 1023.859375 981.300781 L 1024.191406 981.292969 L 922.675781 761.621094 L 886.828125 762.371094 L 821.023438 922.050781 C 835.394531 910.734375 851.863281 902.167969 869.597656 896.941406 " fill-opacity="1" fill-rule="nonzero"/></g></g></g></svg>